#!OML:ASF E:/inclinewalkrobotboard/Project1/Captureday1/Session1/subject1.ASF
:FULLY-SPECIFIED
:DEGREES
376
root 0 0 0 -2.694188666328469 0.10102213012145533 0.2504159996511627
lowerback 10.402648484565864 -0.8603197441468077 -1.994894640825688
upperback 0.47453718313031956 -1.2612219837836531 1.767916681220537
thorax -5.244324517775209 -0.5589931243734885 3.14330241020899
lowerneck -17.356789775980815 -2.6620188467762023 -1.9954203734195604
upperneck 19.851854904068965 -3.2254692619932763 0.20059148498995238
head 9.114890469050852 -1.6137307551883682 -0.025653085668877917
rclavicle -4.604203125346034E-16 -3.076001190783371E-16
rhumerus -28.81685865816231 -17.780785454621686 -77.97924698144331
rradius 26.920856414744826
rwrist 4.452777821626261
rhand -17.72622684249166 22.290202932485105
rfingers 7.1250200000000214
rthumb 8.52825641248609 -7.524337179927858
lclavicle -7.497630897785989E-16 -1.9254154118212324E-16
lhumerus -28.982947402709108 -2.982795718036108 82.20017805942703
lradius 35.15683641342794
lwrist 5.951109242616433
lhand -24.77483813413686 24.388730927300813
lfingers 7.123178227134702
lthumb 1.704449860398963 53.736030310248715
rfemur -6.002221103242546 6.883882324333301 29.4645078703257
rtibia 30.769823356906194
rfoot -12.184460415397936 -6.115045338958056
rtoes 2.8043815681518725
lfemur -9.262621176669017 -0.3216699025097647 -18.19389272826996
ltibia 44.92139138523165
lfoot -1.7475443548077383 -7.293761464164168
ltoes -6.299858267639731
377
root 0 0 0 -2.614536458085015 -0.02749513509583501 -0.6719391235288316
lowerback 10.435835432757814 -0.5304844315984888 -0.9935340248269113
upperback 0.4094934328004718 -0.7042216574771629 1.83782974990245
thorax -5.329149988172766 -0.3010429726496657 2.5770870782900275
lowerneck -17.648894005899717 -2.7126977800831726 -1.803260343161762
upperneck 20.013358343009223 -3.2948048796781406 0.020989419517167818
head 9.219315289983612 -1.6393769044061823 -0.13344381206923472
rclavicle -4.59872691337305E-16 -3.145994858950687E-16
rhumerus -28.87059679002455 -17.829598197501674 -77.99488963739203
rradius 26.86875609294248
rwrist 4.440919674172643
rhand -17.716590809135557 22.32987359374102
rfingers 7.1250200000000214
rthumb 8.536723536865928 -7.485196530042746
lclavicle -7.385978130890797E-16 -2.000141295723887E-16
lhumerus -29.094384313643726 -2.8621109499972626 82.20985835204414
lradius 34.92518553662392
lwrist 5.930370351390186
lhand -24.847292024265975 24.346982541365037
lfingers 7.123228391785358
lthumb 1.6359314579963034 53.71394438267327
rfemur -4.5882788409869235 6.995750601700728 30.350462044934567
rtibia 29.998041254427605
rfoot -12.640522922989987 -5.844294694850427
rtoes 3.1527031891099995
lfemur -16.193297755508286 0.5627540737541188 -14.50949259276994
ltibia 52.89057232111942
lfoot 2.845319556881355 -8.757863937510892
ltoes -6.312218552144054
378
root 0 0 0 -2.4972030864317256 -0.5617483464697202 -2.0199010377860023
lowerback 10.472339791506721 -0.008139678221480984 0.482101768838445
upperback 0.3647274484929426 0.16145118649291312 1.8903336703993237
thorax -5.39063200064397 0.09887724638298287 1.6861406283879286
lowerneck -17.822414494194412 -2.7973853823986454 -1.6188710960893742
upperneck 20.089492721261177 -3.424815925757944 -0.08992540271948002
head 9.279790491539345 -1.6880953559498324 -0.22432252816267084
rclavicle -4.598457840554402E-16 -3.248830383345556E-16
rhumerus -28.900224606383134 -17.84604607878645 -78.00953229683707
rradius 26.845593535897304
rwrist 4.433362516013485
rhand -17.70890522839865 22.34975304852154
rfingers 7.125020000000022
rthumb 8.542241637621608 -7.465115812938254
lclavicle -7.282293107182633E-16 -2.0884307180043568E-16
lhumerus -29.208332032281515 -2.7361569738886864 82.21820936345073
lradius 34.67993465504429
lwrist 5.908950186741885
lhand -24.92082448578344 24.3045090438104
lfingers 7.123296292351014
lthumb 1.5656850403946976 53.69278639311626
rfemur -3.3827946858971636 7.302818550938726 31.02856254332614
rtibia 28.30880406349401
rfoot -13.496309858580672 -5.802351622404488
rtoes 2.985956713903123
lfemur -19.99184738386017 0.8295929231422656 -12.58365558787162
ltibia 55.69366104540966
lfoot 4.499321464029613 -8.742663054262204
ltoes -6.079181500965448
379
root 0 0 0 -2.3594790552311005 -1.6408565097994536 -3.569323213652998
lowerback 10.497417238457322 0.6631032737007405 2.1962886539249515
upperback 0.36393304482521804 1.2471879917037496 1.8887094106332913
thorax -5.397226570777278 0.5981961164983369 0.5759967591817022
lowerneck -17.76602465788527 -2.9223778029187435 -1.507123716535392
upperneck 19.97563745235798 -3.631881289999875 -0.030555441840748543
head 9.243940390915231 -1.7693105637875635 -0.24956484802035428
rclavicle -4.75373105330702E-16 -3.2421731992990385E-16
rhumerus -28.741178428580678 -17.682214962961076 -77.98666100557604
rradius 27.00205323069725
rwrist 4.462644728315668
rhand -17.7321226015522 22.232163588189646
rfingers 7.125020000000021
rthumb 8.519454398496066 -7.5802151160266575
lclavicle -7.301928130878933E-16 -2.1190676990421465E-16
lhumerus -29.30466752229971 -2.622696385838104 82.22283708626827
lradius 34.46574569788678
lwrist 5.891133378636658
lhand -24.983448132759005 24.268893399109675
lfingers 7.123367136384485
lthumb 1.5069256090438685 53.675064222092594
rfemur -2.7816518837776947 7.513174139617801 31.327824203856828
rtibia 27.248512237696225
rfoot -14.036009948767 -5.830929961453043
rtoes 2.787220666780059
lfemur -21.075430213432035 0.595213884818941 -12.191482585394514
ltibia 54.17126193520079
lfoot 3.637986435758922 -7.507196682891912
ltoes -5.668953743013838
380
root 0 0 0 -2.2304903318208673 -3.2031994941927877 -5.041125996191759
lowerback 10.501478944744486 1.3989927380924536 3.8372237750605276
upperback 0.4039900050494558 2.4048635206934033 1.8159582295579324
thorax -5.345542861618379 1.1274185105463794 -0.5805323919001556
lowerneck -17.49174141786657 -3.08622559978816 -1.4935261991507645
upperneck 19.66651987578893 -3.9125834057334785 0.22697798774635913
head 9.106220203293352 -1.8855270321415234 -0.189658343284985
rclavicle -4.935315412874619E-16 -3.1292293421853795E-16
rhumerus -28.57929243479525 -17.523918147607773 -77.9597594193254
rradius 27.157452224262997
rwrist 4.492863730085132
rhand -17.7582265922737 22.11496782626117
rfingers 7.125020000000019
rthumb 8.49522534925988 -7.695038080376861
lclavicle -7.295674572743968E-16 -2.08065091598986E-16
lhumerus -29.49890175533037 -2.4059678918629785 82.23562330370771
lradius 34.05354873542772
lwrist 5.851710317619263
lhand -25.10548241446994 24.195558483771627
lfingers 7.123460093702231
lthumb 1.392093068074285 53.639885071755295
rfemur -2.5368181149484634 7.576233743685179 31.45092866387312
rtibia 26.931620638676577
rfoot -14.20461241212238 -5.823330950607784
rtoes 2.743347550284187
lfemur -21.224606476680712 0.1288273900399417 -12.397237316755831
ltibia 50.69222757055536
lfoot 1.776483147968758 -5.737900353519276
ltoes -5.075781865847452
381
root 0 0 0 -2.159448591783193 -4.363567711213761 -5.888178056384888
lowerback 10.492598607747256 1.8688575577149469 4.782470706858228
upperback 0.4498826786754262 3.130822334241991 1.7369116648453886
thorax -5.284699603220821 1.4579206337530792 -1.296071232481523
lowerneck -17.211357368415015 -3.200006443521094 -1.5361900575317797
upperneck 19.382107471891988 -4.11295708659941 0.4779899643076613
head 8.973130607177854 -1.9699717725159271 -0.11117016870827623
rclavicle -5.06513527826917E-16 -2.9853357926963203E-16
rhumerus -28.5333697452621 -17.48403548826623 -77.95319770182972
rradius 27.19272905709472
rwrist 4.499525772205156
rhand -17.766835724977625 22.086103773937406
rfingers 7.125020000000019
rthumb 8.488277289826119 -7.723302793657449
lclavicle -7.107495447424916E-16 -1.9871816730845514E-16
lhumerus -29.75669437661886 -2.1292736120570765 82.25657524874124
lradius 33.51486093014873
lwrist 5.796278615604349
lhand -25.265986190316482 24.096881783179356
lfingers 7.123572073082736
lthumb 1.2383665437746743 53.59801460077038
rfemur -2.397597498716575 7.659233250928349 31.497189423818305
rtibia 26.501025306766806
rfoot -14.406377360105617 -5.85880109908674
rtoes 2.570667376493338
lfemur -20.79405464985151 -0.4309582978121944 -12.952244430130781
ltibia 46.403250431391285
lfoot -0.4109131905739609 -3.9053566460898566
ltoes -4.421488822913525
382
root 0 0 0 -2.1504202859395143 -4.69854227311507 -6.030061171104908
lowerback 10.485943556092401 1.967304092130726 4.942361878170825
upperback 0.4766898402480013 3.27794786812586 1.7025747911509246
thorax -5.252801311696942 1.5245762912523364 -1.4429779889237064
lowerneck -17.070752335896355 -3.2242945375634355 -1.5787750766971849
upperneck 19.263314989260483 -4.159915321590233 0.5797224876971487
head 8.915797948193664 -1.989839169022669 -0.07115489356292448
rclavicle -5.036918513106912E-16 -2.9961136040105284E-16
rhumerus -28.658149773675692 -17.60716344201048 -77.98030585040252
rradius 27.062682264450128
rwrist 4.471271879253457
rhand -17.74627099161397 22.182240443292873
rfingers 7.12502000000002
rthumb 8.508382386722028 -7.629180319928878
lclavicle -6.829386479303949E-16 -1.9535451207159714E-16
lhumerus -29.984197396453997 -1.886823088282668 82.2747992455761
lradius 33.037146596367116
lwrist 5.744684948161385
lhand -25.407688460020253 24.007752622117582
lfingers 7.123681657734338
lthumb 1.1025829196934076 53.5625153755826
rfemur -2.535156151522685 7.710373949734581 31.34338580845456
rtibia 26.3585937046585
rfoot -14.49564880778324 -5.936016978843342
rtoes 2.3389099274241776
lfemur -19.555948624559324 -0.9371373576164826 -13.84836637246882
ltibia 42.375881429965865
lfoot -2.4508319074353437 -2.526569468941757
ltoes -3.9510430617131265
383
root 0 0 0 -2.1596450527928766 -4.775168661561112 -5.970639356634761
lowerback 10.480832991983856 1.956667713177588 4.879002229641065
upperback 0.4942276497103695 3.2560696555885587 1.684375549880618
thorax -5.232407173979852 1.514323003037773 -1.4240775972072734
lowerneck -16.986283382209162 -3.2217051827697887 -1.6151122808305178
upperneck 19.20727603478538 -4.159166259066165 0.6277583166145959
head 8.88591031686706 -1.9901768631100876 -0.0473512547094197
rclavicle -4.917182020713118E-16 -3.0874024791734925E-16
rhumerus -28.840977722586995 -17.778975148497416 -78.01911768894038
rradius 26.890259330537923
rwrist 4.432477252092296
rhand -17.71577808418507 22.316656211826498
rfingers 7.1250200000000214
rthumb 8.536678282061569 -7.497344185642056
lclavicle -6.679226211268047E-16 -1.974886309344042E-16
lhumerus -30.12059168662963 -1.737177915143917 82.28348898489881
lradius 32.745011260083665
lwrist 5.7129257439015415
lhand -25.493641435976272 23.953273254770643
lfingers 7.123760157053245
lthumb 1.020885717909449 53.53996021738361
rfemur -3.1074869621246144 7.551297172294484 30.976164508350653
rtibia 27.356094290055943
rfoot -14.056115183182172 -5.94125109714019
rtoes 2.4153086115798077
lfemur -17.658535180088215 -1.3592497500074283 -14.996289155860401
ltibia 38.847648478898776
lfoot -4.282155477777122 -1.5970609871502415
ltoes -3.6682669638549847
